<?xml version="1.0" encoding="UTF-8" standalone="no"?>
<svg
   xmlns:dc="http://purl.org/dc/elements/1.1/"
   xmlns:cc="http://creativecommons.org/ns#"
   xmlns:rdf="http://www.w3.org/1999/02/22-rdf-syntax-ns#"
   xmlns:svg="http://www.w3.org/2000/svg"
   xmlns="http://www.w3.org/2000/svg"
   viewBox="0 0 113.38667 24.226667"
   height="24.226667"
   width="113.38667"
   xml:space="preserve"
   id="svg2"
   version="1.1"><metadata
     id="metadata8"><rdf:RDF><cc:Work
         rdf:about=""><dc:format>image/svg+xml</dc:format><dc:type
           rdf:resource="http://purl.org/dc/dcmitype/StillImage" /></cc:Work></rdf:RDF></metadata><defs
     id="defs6" /><g
     transform="matrix(1.3333333,0,0,-1.3333333,0,24.226667)"
     id="g10"><g
       transform="scale(0.1)"
       id="g12"><path
         id="path14"
         style="fill:#f0414c;fill-opacity:1;fill-rule:nonzero;stroke:none"
         d="m 65.4453,84.5742 c 0,-14.1992 -12.6406,-26.3203 -22.6758,-26.3203 -8.2734,0 -15.0664,4.3281 -17.8398,12.0899 V 140.496 L 0,140.496 V 68.7734 C 0.695313,58.0391 10.3047,38.168 32.5469,38.168 c 22.3398,0 33.9414,17.3203 33.9414,17.3203 V 40.4219 H 90.7266 V 140.496 H 65.4453 V 84.5742" /><path
         id="path16"
         style="fill:#f0414c;fill-opacity:1;fill-rule:nonzero;stroke:none"
         d="m 173.484,181.703 v -54.297 c -7.738,9.645 -18.492,15.625 -30.386,15.625 -23.575,0 -42.676,-16.242 -42.676,-52.4333 0,-28.9571 12.703,-52.4297 42.676,-52.4297 11.894,0 22.652,5.9843 30.386,15.6211 V 40.4219 h 24.59 V 181.703 Z M 150.605,58.4297 c -16.035,0 -22.824,14.4375 -22.824,32.25 0,22.2543 10.219,32.2423 22.824,32.2423 12.606,0 22.825,-14.438 22.825,-32.2423 0,-17.8125 -10.219,-32.25 -22.825,-32.25" /><path
         id="path18"
         style="fill:#f0414c;fill-opacity:1;fill-rule:nonzero;stroke:none"
         d="m 234.922,0 v 54.2969 c 7.746,-9.6446 18.492,-15.625 30.383,-15.625 23.578,0 42.683,16.2422 42.683,52.4297 0,28.9574 -12.699,52.4294 -42.683,52.4294 -11.891,0 -22.637,-5.98 -30.383,-15.621 v 13.371 h -24.59 V 0 Z m 22.887,123.273 c 16.031,0 22.828,-14.437 22.828,-32.2457 0,-22.2656 -10.231,-32.2539 -22.828,-32.2539 -12.614,0 -22.832,14.4414 -22.832,32.2539 -0.004,17.8047 10.218,32.2457 22.832,32.2457" /><path
         id="path20"
         style="fill:#353738;fill-opacity:1;fill-rule:nonzero;stroke:none"
         d="m 325.02,141.777 c 0,0.598 0.539,1.145 1.144,1.145 h 2.293 c 0.668,0 1.145,-0.547 1.145,-1.145 v -25.164 c 0,-6.875 4.285,-12.246 11.343,-12.246 7.114,0 11.457,5.25 11.457,12.129 v 25.281 c 0,0.598 0.481,1.145 1.145,1.145 h 2.297 c 0.601,0 1.14,-0.547 1.14,-1.145 v -25.519 c 0,-9.168 -6.515,-16.172 -16.043,-16.172 -9.472,0 -15.929,7.004 -15.929,16.172 v 25.519 h 0.008" /><path
         id="path22"
         style="fill:#353738;fill-opacity:1;fill-rule:nonzero;stroke:none"
         d="m 371.793,142.441 c 0,0.598 0.543,1.086 1.152,1.086 h 1.5 l 27.211,-33.906 c 0.063,0 0.063,0 0.129,0 v 32.156 c 0,0.598 0.477,1.145 1.141,1.145 h 2.109 c 0.602,0 1.145,-0.547 1.145,-1.145 v -40.605 c 0,-0.606 -0.543,-1.086 -1.145,-1.086 h -1.082 l -27.691,34.57 h -0.063 v -32.824 c 0,-0.598 -0.484,-1.141 -1.144,-1.141 h -2.11 c -0.609,0 -1.152,0.543 -1.152,1.141 v 40.609" /><path
         id="path24"
         style="fill:#353738;fill-opacity:1;fill-rule:nonzero;stroke:none"
         d="m 421.539,141.777 c 0,0.598 0.543,1.145 1.145,1.145 h 2.414 c 0.601,0 1.144,-0.547 1.144,-1.145 v -39.945 c 0,-0.598 -0.543,-1.141 -1.144,-1.141 h -2.414 c -0.602,0 -1.145,0.543 -1.145,1.141 v 39.945" /><path
         id="path26"
         style="fill:#353738;fill-opacity:1;fill-rule:nonzero;stroke:none"
         d="m 435.844,141.352 c -0.367,0.785 0.121,1.57 1.027,1.57 h 2.41 c 0.547,0 0.903,-0.363 1.024,-0.66 l 15.027,-33.793 h 0.238 l 15.024,33.793 c 0.125,0.297 0.539,0.66 1.023,0.66 h 2.414 c 0.907,0 1.387,-0.785 1.028,-1.57 l -18.344,-40.606 c -0.18,-0.355 -0.543,-0.66 -1.024,-0.66 h -0.601 c -0.422,0 -0.844,0.305 -1.027,0.66 l -18.219,40.606" /><path
         id="path28"
         style="fill:#353738;fill-opacity:1;fill-rule:nonzero;stroke:none"
         d="m 484.676,141.777 c 0,0.598 0.484,1.145 1.144,1.145 h 23.77 c 0.668,0 1.144,-0.547 1.144,-1.145 v -1.754 c 0,-0.597 -0.48,-1.144 -1.144,-1.144 h -20.274 v -14.723 h 17.317 c 0.605,0 1.148,-0.539 1.148,-1.144 v -1.75 c 0,-0.664 -0.543,-1.141 -1.148,-1.141 H 489.316 V 104.73 h 20.274 c 0.668,0 1.144,-0.546 1.144,-1.148 v -1.75 c 0,-0.598 -0.48,-1.141 -1.144,-1.141 h -23.77 c -0.664,0 -1.144,0.543 -1.144,1.141 v 39.945" /><path
         id="path30"
         style="fill:#353738;fill-opacity:1;fill-rule:nonzero;stroke:none"
         d="m 523.426,141.777 c 0,0.598 0.484,1.145 1.148,1.145 h 15.625 c 7.235,0 13.145,-5.676 13.145,-12.852 0,-5.55 -3.676,-10.199 -8.922,-12.304 l 8.262,-15.325 c 0.421,-0.781 0,-1.75 -1.024,-1.75 h -3.078 c -0.547,0 -0.844,0.301 -0.969,0.543 l -8.023,15.985 h -11.524 v -15.387 c 0,-0.598 -0.539,-1.141 -1.14,-1.141 h -2.348 c -0.668,0 -1.152,0.543 -1.152,1.141 v 39.945 z m 16.469,-20.574 c 4.644,0 8.691,3.863 8.691,8.809 0,4.582 -4.047,8.504 -8.691,8.504 h -11.704 v -17.313 h 11.704" /><path
         id="path32"
         style="fill:#353738;fill-opacity:1;fill-rule:nonzero;stroke:none"
         d="m 563.625,107.023 c 0.297,0.364 0.602,0.786 0.898,1.149 0.606,0.785 1.27,1.266 2.118,0.543 0.418,-0.363 4.824,-4.586 10.199,-4.586 4.883,0 8.078,3.078 8.078,6.633 0,4.164 -3.617,6.64 -10.555,9.531 -6.636,2.898 -10.617,5.617 -10.617,12.5 0,4.094 3.258,10.734 12.848,10.734 5.914,0 10.32,-3.078 10.32,-3.078 0.359,-0.179 1.086,-0.906 0.359,-2.051 -0.238,-0.363 -0.484,-0.785 -0.718,-1.152 -0.547,-0.836 -1.145,-1.086 -2.114,-0.539 -0.425,0.238 -4.226,2.777 -7.906,2.777 -6.394,0 -8.328,-4.101 -8.328,-6.64 0,-4.043 3.082,-6.395 8.148,-8.512 8.145,-3.312 13.391,-6.391 13.391,-13.387 0,-6.273 -5.969,-10.863 -13.031,-10.863 -7.117,0 -11.945,4.168 -12.731,4.891 -0.48,0.422 -1.082,0.906 -0.359,2.05" /><path
         id="path34"
         style="fill:#353738;fill-opacity:1;fill-rule:nonzero;stroke:none"
         d="m 601.531,141.777 c 0,0.598 0.543,1.145 1.145,1.145 h 2.41 c 0.609,0 1.148,-0.547 1.148,-1.145 v -39.945 c 0,-0.598 -0.539,-1.141 -1.148,-1.141 h -2.41 c -0.602,0 -1.145,0.543 -1.145,1.141 v 39.945" /><path
         id="path36"
         style="fill:#353738;fill-opacity:1;fill-rule:nonzero;stroke:none"
         d="m 621.574,141.777 c 0,0.598 0.481,1.145 1.082,1.145 h 13.516 c 11.644,0 21.172,-9.469 21.172,-21.055 0,-11.707 -9.524,-21.176 -21.172,-21.176 h -13.516 c -0.601,0 -1.082,0.543 -1.082,1.141 z m 13.629,-36.925 c 9.887,0 17.074,7.054 17.074,17.015 0,9.891 -7.183,16.953 -17.074,16.953 h -9.051 v -33.968 h 9.051" /><path
         id="path38"
         style="fill:#353738;fill-opacity:1;fill-rule:nonzero;stroke:none"
         d="m 663.648,102.262 18.344,40.601 c 0.176,0.36 0.481,0.664 1.028,0.664 h 0.601 c 0.539,0 0.844,-0.304 1.024,-0.664 l 18.218,-40.601 c 0.364,-0.785 -0.121,-1.571 -1.019,-1.571 h -2.418 c -0.539,0 -0.906,0.368 -1.028,0.661 l -4.46,9.953 H 672.52 l -4.407,-9.953 c -0.117,-0.297 -0.488,-0.661 -1.023,-0.661 h -2.414 c -0.906,0 -1.387,0.786 -1.028,1.571 z m 28.657,12.785 c -2.953,6.578 -5.852,13.219 -8.809,19.789 h -0.48 l -8.809,-19.789 h 18.098" /><path
         id="path40"
         style="fill:#353738;fill-opacity:1;fill-rule:nonzero;stroke:none"
         d="m 712.48,141.777 c 0,0.598 0.481,1.145 1.083,1.145 h 13.519 c 11.641,0 21.172,-9.469 21.172,-21.055 0,-11.707 -9.531,-21.176 -21.172,-21.176 h -13.519 c -0.602,0 -1.083,0.543 -1.083,1.141 z m 13.633,-36.925 c 9.895,0 17.075,7.054 17.075,17.015 0,9.891 -7.18,16.953 -17.075,16.953 h -9.05 v -33.968 h 9.05" /><path
         id="path42"
         style="fill:#353738;fill-opacity:1;fill-rule:nonzero;stroke:none"
         d="m 325.559,81.4141 c 0,0.5976 0.488,1.1445 1.093,1.1445 h 13.512 c 11.637,0 21.172,-9.4688 21.172,-21.0547 0,-11.707 -9.531,-21.1758 -21.172,-21.1758 h -13.512 c -0.605,0 -1.093,0.5469 -1.093,1.1485 z m 13.636,-36.9258 c 9.895,0 17.075,7.0586 17.075,17.0156 0,9.8945 -7.18,16.9531 -17.075,16.9531 h -9.05 V 44.4883 h 9.05 v 0" /><path
         id="path44"
         style="fill:#353738;fill-opacity:1;fill-rule:nonzero;stroke:none"
         d="m 373.664,81.4141 c 0,0.5976 0.547,1.1445 1.149,1.1445 h 2.414 c 0.601,0 1.144,-0.5469 1.144,-1.1445 V 41.4727 c 0,-0.5977 -0.543,-1.1485 -1.144,-1.1485 h -2.414 c -0.602,0 -1.149,0.5469 -1.149,1.1485 v 39.9414" /><path
         id="path46"
         style="fill:#353738;fill-opacity:1;fill-rule:nonzero;stroke:none"
         d="m 393.711,81.4141 c 0,0.5976 0.48,1.1445 1.144,1.1445 h 23.766 c 0.668,0 1.145,-0.5469 1.145,-1.1445 v -1.7539 c 0,-0.6016 -0.481,-1.1446 -1.145,-1.1446 H 398.348 V 63.793 h 17.324 c 0.601,0 1.144,-0.5391 1.144,-1.1446 v -1.7461 c 0,-0.664 -0.543,-1.1484 -1.144,-1.1484 H 398.348 V 44.3711 h 20.273 c 0.668,0 1.145,-0.5469 1.145,-1.1484 v -1.7461 c 0,-0.5977 -0.481,-1.1485 -1.145,-1.1485 h -23.766 c -0.667,0 -1.144,0.5469 -1.144,1.1485 v 39.9375" /><path
         id="path48"
         style="fill:#353738;fill-opacity:1;fill-rule:nonzero;stroke:none"
         d="m 450.977,83.1641 c 6.093,0 10.5,-2.1133 14.601,-5.6094 0.485,-0.4883 0.535,-1.207 0.059,-1.6875 -0.543,-0.5469 -1.207,-1.1524 -1.692,-1.6953 -0.539,-0.6016 -0.902,-0.543 -1.562,0.0625 -3.078,2.7148 -7.426,4.707 -11.465,4.707 -9.531,0 -16.773,-7.9609 -16.773,-17.3164 0,-9.2891 7.242,-17.4336 16.773,-17.4336 6.637,0 10.859,2.5352 10.859,2.5352 v 8.4414 h -6.937 c -0.664,0 -1.145,0.4804 -1.145,1.0859 v 2.2344 c 0,0.664 0.485,1.1445 1.145,1.1445 h 10.433 c 0.606,0 1.09,-0.5469 1.09,-1.1445 V 44.6719 c 0,-0.3047 -0.25,-0.7813 -0.484,-0.9649 0,0 -6.152,-3.9843 -14.902,-3.9843 -12.063,0 -21.782,9.5976 -21.782,21.6601 0,12.0664 9.719,21.7813 21.782,21.7813" /><path
         id="path50"
         style="fill:#353738;fill-opacity:1;fill-rule:nonzero;stroke:none"
         d="m 498.066,83.1641 c 12.067,0 21.719,-9.7149 21.719,-21.7813 0,-12.0625 -9.652,-21.6601 -21.719,-21.6601 -12.066,0 -21.66,9.5976 -21.66,21.6601 0,12.0664 9.598,21.7813 21.66,21.7813 z m 0,-39.2149 c 9.59,0 17.493,7.836 17.493,17.4336 0,9.5977 -7.903,17.5586 -17.493,17.5586 -9.593,0 -17.437,-7.9609 -17.437,-17.5586 0,-9.5976 7.844,-17.4336 17.437,-17.4336" /><path
         id="path52"
         style="fill:#353738;fill-opacity:1;fill-rule:nonzero;stroke:none"
         d="m 548.477,81.4141 c 0,0.5976 0.476,1.1445 1.14,1.1445 h 13.336 c 7.422,0 13.512,-6.0313 13.512,-13.3359 0,-7.4766 -6.086,-13.5743 -13.449,-13.5743 h -9.957 V 41.4727 c 0,-0.5977 -0.539,-1.1485 -1.145,-1.1485 h -2.293 c -0.668,0 -1.144,0.5469 -1.144,1.1485 v 39.9414 z m 14.171,-21.3008 c 4.954,0 9.176,4.0469 9.176,9.2344 0,4.8828 -4.226,8.6171 -9.176,8.6171 h -9.593 V 60.1133 h 9.593" /><path
         id="path54"
         style="fill:#353738;fill-opacity:1;fill-rule:nonzero;stroke:none"
         d="m 606.051,83.1641 c 12.066,0 21.722,-9.7149 21.722,-21.7813 0,-12.0625 -9.656,-21.6601 -21.722,-21.6601 -12.067,0 -21.664,9.5976 -21.664,21.6601 0,12.0664 9.601,21.7813 21.664,21.7813 z m 0,-39.2149 c 9.597,0 17.504,7.836 17.504,17.4336 0,9.5977 -7.907,17.5586 -17.504,17.5586 -9.586,0 -17.434,-7.9609 -17.434,-17.5586 0,-9.5976 7.852,-17.4336 17.434,-17.4336" /><path
         id="path56"
         style="fill:#353738;fill-opacity:1;fill-rule:nonzero;stroke:none"
         d="m 640.047,81.4141 c 0,0.5976 0.48,1.1445 1.144,1.1445 h 15.625 c 7.239,0 13.153,-5.6758 13.153,-12.8477 0,-5.5507 -3.684,-10.1992 -8.926,-12.3086 l 8.262,-15.3281 c 0.418,-0.7773 0,-1.75 -1.032,-1.75 h -3.074 c -0.543,0 -0.844,0.3047 -0.969,0.5469 l -8.019,15.9805 h -11.52 V 41.4688 c 0,-0.5977 -0.543,-1.1446 -1.144,-1.1446 h -2.356 c -0.664,0 -1.144,0.5469 -1.144,1.1446 v 39.9453 z m 16.465,-20.5743 c 4.648,0 8.691,3.8594 8.691,8.8047 0,4.586 -4.043,8.5078 -8.691,8.5078 H 644.809 V 60.8398 h 11.703" /><path
         id="path58"
         style="fill:#353738;fill-opacity:1;fill-rule:nonzero;stroke:none"
         d="m 688.941,78.5156 h -10.496 c -0.668,0 -1.152,0.543 -1.152,1.1446 v 1.7539 c 0,0.5976 0.488,1.1445 1.152,1.1445 h 25.575 c 0.664,0 1.144,-0.5469 1.144,-1.1445 v -1.7539 c 0,-0.6016 -0.484,-1.1446 -1.144,-1.1446 h -10.5 v -37.039 c 0,-0.5977 -0.543,-1.1485 -1.145,-1.1485 h -2.289 c -0.609,0 -1.145,0.5469 -1.145,1.1485 v 37.039" /><path
         id="path60"
         style="fill:#353738;fill-opacity:1;fill-rule:nonzero;stroke:none"
         d="m 706.75,41.8945 18.344,40.6016 c 0.179,0.3594 0.48,0.6641 1.027,0.6641 h 0.602 c 0.539,0 0.843,-0.3047 1.023,-0.6641 l 18.219,-40.6016 c 0.363,-0.7812 -0.117,-1.5703 -1.024,-1.5703 h -2.414 c -0.539,0 -0.906,0.3633 -1.023,0.6641 l -4.465,9.9531 h -21.418 l -4.402,-9.9531 c -0.125,-0.3008 -0.489,-0.6641 -1.024,-0.6641 h -2.422 c -0.906,0 -1.386,0.7891 -1.023,1.5703 z m 28.656,12.7891 c -2.953,6.5781 -5.851,13.2109 -8.808,19.7891 h -0.481 l -8.804,-19.7891 h 18.093" /><path
         id="path62"
         style="fill:#353738;fill-opacity:1;fill-rule:nonzero;stroke:none"
         d="m 755.582,81.4141 c 0,0.5976 0.481,1.1445 1.145,1.1445 h 2.347 c 0.606,0 1.145,-0.5469 1.145,-1.1445 V 44.3672 h 17.379 c 0.664,0 1.144,-0.543 1.144,-1.1445 v -1.75 c 0,-0.5977 -0.484,-1.1485 -1.144,-1.1485 h -20.875 c -0.664,0 -1.145,0.5469 -1.145,1.1485 v 39.9414 h 0.004" /><path
         id="path64"
         style="fill:#353738;fill-opacity:1;fill-rule:nonzero;stroke:none"
         d="m 788.238,81.4141 c 0,0.5976 0.481,1.1445 1.145,1.1445 h 23.773 c 0.664,0 1.141,-0.5469 1.141,-1.1445 v -1.7539 c 0,-0.6016 -0.481,-1.1446 -1.141,-1.1446 H 792.883 V 63.793 h 17.316 c 0.602,0 1.141,-0.5391 1.141,-1.1446 v -1.7461 c 0,-0.664 -0.539,-1.1484 -1.141,-1.1484 H 792.883 V 44.3711 h 20.273 c 0.664,0 1.141,-0.5469 1.141,-1.1484 v -1.7461 c 0,-0.5977 -0.481,-1.1485 -1.141,-1.1485 h -23.773 c -0.664,0 -1.145,0.5469 -1.145,1.1485 v 39.9375" /><path
         id="path66"
         style="fill:#353738;fill-opacity:1;fill-rule:nonzero;stroke:none"
         d="m 824.27,46.6641 c 0.3,0.3593 0.601,0.7812 0.902,1.1445 0.609,0.7852 1.266,1.2656 2.113,0.5391 0.422,-0.3555 4.832,-4.5821 10.203,-4.5821 4.883,0 8.078,3.0742 8.078,6.6367 0,4.1602 -3.621,6.6368 -10.554,9.5274 -6.641,2.9023 -10.617,5.6133 -10.617,12.4922 0,4.1054 3.257,10.7422 12.855,10.7422 5.906,0 10.309,-3.0821 10.309,-3.0821 0.363,-0.1757 1.089,-0.9023 0.363,-2.0507 -0.242,-0.3633 -0.488,-0.7852 -0.723,-1.1485 -0.547,-0.8359 -1.144,-1.082 -2.113,-0.539 -0.422,0.2421 -4.227,2.7734 -7.906,2.7734 -6.391,0 -8.325,-4.0977 -8.325,-6.6328 0,-4.043 3.079,-6.3985 8.149,-8.5078 8.141,-3.3203 13.391,-6.3985 13.391,-13.3946 0,-6.2734 -5.969,-10.8593 -13.032,-10.8593 -7.117,0 -11.949,4.164 -12.726,4.8867 -0.489,0.4219 -1.09,0.9023 -0.367,2.0547" /></g></g></svg>